<?xml version="1.0" encoding="UTF-8"?>
<svg id="Objects" xmlns="http://www.w3.org/2000/svg" viewBox="0 0 2200 1466">
  <path d="M957.65,1367.64l119.81-193.53h67.4c3.4,0,6.16-2.75,6.16-6.16v-72.75c0-3.4-2.76-6.16-6.16-6.16h-14.73l58.12-93.88h59.87c3.4,0,6.16-2.76,6.16-6.16v-72.75c0-3.4-2.76-6.16-6.16-6.16h-7.21l58.85-95.06h215.63c116.17,0,207.12-46.35,207.12-75.97s-90.95-75.97-207.12-75.97h-215.63l-58.85-95.06h7.21c3.4,0,6.16-2.76,6.16-6.16v-72.75c0-3.4-2.76-6.16-6.16-6.16h-59.87l-58.12-93.88h14.73c3.4,0,6.16-2.76,6.16-6.16v-72.75c0-3.41-2.76-6.16-6.16-6.16h-67.4l-119.81-193.53c-3.99-6.44-11.03-10.36-18.61-10.36h-51.01c-5.22,0-8.86,5.18-7.09,10.09l104.03,288.55h-7.52c-2.34,0-4.56.56-6.18,1.46-1.63.9-2.67,2.15-2.67,3.53,0,2.76,4.32,4.99,8.85,4.99h11.12l36.59,101.5v44.68h-11.34c-2.34,0-4.56.56-6.18,1.46-1.63.9-2.67,2.15-2.67,3.53,0,2.76,4.32,4.99,8.85,4.99h11.34v98.18h-85.37c-58.91,0-109.64,2.58-153.23,6.79h.03s-122.76-181.54-122.76-181.54c-1.9-2.81-5.07-4.5-8.47-4.5h-31.27c-6.49,0-11.34,5.97-10,12.32l19.92,95.05h-7.07c-2.34,0-4.56.56-6.18,1.46-1.63.9-2.67,2.15-2.67,3.53,0,2.76,4.32,4.99,8.85,4.99h9.16l13.96,66.58h-7.58c-2.34,0-4.56.56-6.18,1.46-1.63.9-2.67,2.15-2.67,3.53,0,2.76,4.32,4.99,8.85,4.99h9.67l2.85,13.58c-48.13,11.96-77.96,25.29-95.01,34.82h-57.63c-6.07,0-11.79,1.44-15.99,3.78-4.2,2.33-6.89,5.56-6.89,9.12,0,7.13,11.15,12.91,22.88,12.91h57.63c17.05,9.53,46.88,22.86,95.01,34.82l-2.85,13.58h-9.67c-4.54,0-8.85,2.23-8.85,4.99,0,1.38,1.04,2.63,2.67,3.53,1.63.91,3.84,1.46,6.18,1.46h7.58l-13.96,66.58h-9.16c-4.54,0-8.85,2.23-8.85,4.99,0,1.38,1.04,2.63,2.67,3.53,1.63.91,3.84,1.46,6.18,1.46h7.07l-19.92,95.05c-1.33,6.35,3.52,12.32,10,12.32h31.27c3.39,0,6.57-1.68,8.47-4.5l122.76-181.54h-.03c43.59,4.2,94.32,6.78,153.23,6.78h85.37v98.18h-11.34c-4.54,0-8.85,2.23-8.85,4.99,0,1.38,1.04,2.63,2.67,3.53,1.63.91,3.84,1.46,6.18,1.46h11.34v44.68l-36.59,101.5h-11.12c-4.54,0-8.85,2.23-8.85,4.99,0,1.38,1.04,2.63,2.67,3.53,1.63.91,3.84,1.46,6.18,1.46h7.52l-104.03,288.55c-1.77,4.91,1.87,10.09,7.09,10.09h51.01c7.58,0,14.61-3.92,18.61-10.36Z"/>
</svg>